<svg xmlns="http://www.w3.org/2000/svg" width="32.312" height="32.426" viewBox="0 0 32.312 32.426">
  <path id="foxy" d="M564.6,6.694l.24-.069a1.531,1.531,0,0,0-.24.069m2.427,19.133c.354-.515,7.083-10.508-2.175-19.2a18.678,18.678,0,0,0-6.373,9.711,27.254,27.254,0,0,0-.559,7.177,11.012,11.012,0,0,1-.528-1.194c-.01,0-.019.007-.028.012-.023-.085-.044-.171-.063-.259a12.657,12.657,0,0,1-.684-3.476c-.02-.31-.028-.617-.023-.926a4.6,4.6,0,0,0-3.165,1.125s-.963-.556-2.423-1.369c-3.661-2.042-10.452-5.7-13.033-6.221l-.335-.09-.023.143c-.217.73-1.25,5.267,4.583,10.517a32.007,32.007,0,0,0,6.114,4.211c.354.194.716.383,1.088.575,0,0-2.282,6.768,3.2,9.009,0,0,1.324,5.453,5.5,2.712a10.748,10.748,0,0,0,1.642-1.381s10.178-.539,7.271-11.046a.152.152,0,0,1,.016-.023M556.782,37.207c-.063.57-.624,1.31-1.271,1.236a1.484,1.484,0,0,1-1.078-1.506c.066-.566.665-.635,1.317-.559s1.1.263,1.032.829" transform="translate(-537.406 -6.622)" fill="#fff"/>
</svg>
