<svg xmlns="http://www.w3.org/2000/svg" xmlns:xlink="http://www.w3.org/1999/xlink" width="414" height="94.41" viewBox="0 0 414 94.41">
  <defs>
    <clipPath id="clip-path">
      <rect id="Rectangle_57" data-name="Rectangle 57" width="414" height="94.41" fill="none"/>
    </clipPath>
  </defs>
  <g id="Group_55" data-name="Group 55" clip-path="url(#clip-path)">
    <g id="bigsquiggle">
      <path id="Path_75" data-name="Path 75" d="M409.16,74.54c1.69,0,3.3.02,4.84.05V86.52c-1.53-.04-3.14-.06-4.84-.06-16.35,0-24.3,1.86-32.71,3.82-8.71,2.03-17.71,4.13-35.43,4.13s-26.71-2.1-35.42-4.13c-8.41-1.96-16.36-3.82-32.71-3.82s-24.3,1.86-32.71,3.82c-8.7,2.03-17.7,4.13-35.42,4.13s-26.72-2.1-35.42-4.13c-8.42-1.96-16.37-3.82-32.72-3.82s-24.29,1.86-32.71,3.82c-8.7,2.03-17.7,4.13-35.42,4.13s-26.72-2.1-35.42-4.13C24.65,88.32,16.7,86.46.36,86.46V74.54a148.449,148.449,0,0,1,22.09,1.44,2.557,2.557,0,0,1,.27.05c4.97.75,9.05,1.7,13.06,2.64,3.33.78,6.6,1.54,10.35,2.17a2.559,2.559,0,0,1,.27.05c1.12.19,2.28.36,3.5.52a138.609,138.609,0,0,0,18.59,1.08,138.609,138.609,0,0,0,18.59-1.08c1.22-.16,2.38-.33,3.5-.52a2.559,2.559,0,0,1,.27-.05c3.75-.63,7.02-1.39,10.35-2.17,4.02-.94,8.1-1.89,13.06-2.64a2.557,2.557,0,0,1,.27-.05,148.449,148.449,0,0,1,22.09-1.44,147.116,147.116,0,0,1,22.44,1.5c4.94.75,9,1.69,12.99,2.63,3.33.78,6.58,1.54,10.32,2.17.1.01.2.03.3.05,1.12.19,2.28.36,3.5.52a138.5,138.5,0,0,0,18.59,1.08,138.444,138.444,0,0,0,18.58-1.08c1.22-.16,2.39-.33,3.51-.52a2.559,2.559,0,0,1,.27-.05c3.75-.63,7.01-1.39,10.35-2.17,4.01-.94,8.09-1.89,13.06-2.64a1.863,1.863,0,0,1,.27-.05,148.449,148.449,0,0,1,22.09-1.44,148.449,148.449,0,0,1,22.09,1.44,1.863,1.863,0,0,1,.27.05c4.97.75,9.05,1.7,13.06,2.64,3.34.78,6.6,1.54,10.35,2.17a2.559,2.559,0,0,1,.27.05c1.12.19,2.29.36,3.51.52a138.443,138.443,0,0,0,18.58,1.08,138.5,138.5,0,0,0,18.59-1.08c1.35-.17,2.62-.37,3.85-.58,3.72-.63,6.96-1.39,10.28-2.16,4-.94,8.08-1.89,13.03-2.64.1-.02.2-.03.3-.05a148.449,148.449,0,0,1,22.09-1.44" fill="#feffc2"/>
      <path id="Path_76" data-name="Path 76" d="M414,69.48V81.41c-1.53-.04-3.14-.06-4.84-.06s-3.32.02-4.85.06a119.307,119.307,0,0,0-27.86,3.76c-8.71,2.03-17.71,4.13-35.43,4.13s-26.71-2.1-35.42-4.13a119.325,119.325,0,0,0-27.87-3.76c-1.53-.04-3.14-.06-4.84-.06s-3.31.02-4.84.06a119.325,119.325,0,0,0-27.87,3.76c-8.7,2.03-17.7,4.13-35.42,4.13s-26.72-2.1-35.42-4.13a119.489,119.489,0,0,0-27.87-3.76c-1.53-.04-3.14-.06-4.85-.06s-3.31.02-4.84.06a119.489,119.489,0,0,0-27.87,3.76c-8.7,2.03-17.7,4.13-35.42,4.13s-26.72-2.1-35.42-4.13A119.489,119.489,0,0,0,5.2,81.41c-1.53-.04-3.14-.06-4.84-.06V69.43a156.646,156.646,0,0,1,18.61.98,142.771,142.771,0,0,1,16.81,3.15c8.41,1.96,16.36,3.82,32.71,3.82s24.3-1.86,32.71-3.82a142.771,142.771,0,0,1,16.81-3.15,156.646,156.646,0,0,1,18.61-.98,156.646,156.646,0,0,1,18.61.98,142.579,142.579,0,0,1,16.82,3.15c8.41,1.96,16.36,3.82,32.71,3.82s24.29-1.86,32.71-3.82a142.771,142.771,0,0,1,16.81-3.15,177.189,177.189,0,0,1,37.22,0,142.771,142.771,0,0,1,16.81,3.15c8.42,1.96,16.37,3.82,32.71,3.82s24.3-1.86,32.72-3.82a142.771,142.771,0,0,1,16.81-3.15,156.646,156.646,0,0,1,18.61-.98c1.69,0,3.3.02,4.84.05" fill="#ffcad4"/>
      <path id="Path_77" data-name="Path 77" d="M414,62.51V74.44c-1.53-.04-3.14-.06-4.84-.06a130.579,130.579,0,0,0-22.09,1.6c-.1.02-.2.03-.3.05-3.74.64-6.99,1.39-10.32,2.17-3.99.93-8.05,1.88-12.99,2.63-1.37.21-2.81.4-4.34.58a159.464,159.464,0,0,1-18.1.92,159.463,159.463,0,0,1-18.1-.92c-1.4-.16-2.72-.34-3.99-.52a2.559,2.559,0,0,0-.27-.05c-4.96-.75-9.04-1.71-13.06-2.64-3.33-.78-6.6-1.54-10.35-2.17a1.863,1.863,0,0,0-.27-.05,130.579,130.579,0,0,0-22.09-1.6,130.579,130.579,0,0,0-22.09,1.6,1.863,1.863,0,0,0-.27.05c-3.75.63-7.02,1.39-10.35,2.17-4.01.93-8.09,1.89-13.06,2.64a2.559,2.559,0,0,0-.27.05c-1.27.18-2.59.36-3.99.52a159.464,159.464,0,0,1-18.1.92,159.464,159.464,0,0,1-18.1-.92c-1.4-.16-2.72-.34-3.99-.52-.1-.02-.2-.04-.3-.05-4.95-.75-9.03-1.71-13.03-2.64-3.32-.77-6.56-1.53-10.28-2.16a128.9,128.9,0,0,0-22.44-1.66,130.667,130.667,0,0,0-22.09,1.6,2.557,2.557,0,0,0-.27.05c-3.75.63-7.01,1.39-10.35,2.17-4.01.93-8.09,1.89-13.06,2.64a2.559,2.559,0,0,0-.27.05c-1.27.18-2.59.36-3.99.52a159.464,159.464,0,0,1-18.1.92,159.464,159.464,0,0,1-18.1-.92c-1.4-.16-2.72-.34-3.99-.52a2.559,2.559,0,0,0-.27-.05c-4.97-.75-9.05-1.71-13.06-2.64-3.34-.78-6.6-1.54-10.35-2.17a2.557,2.557,0,0,0-.27-.05A130.667,130.667,0,0,0,.36,74.38V62.46c17.72,0,26.72,2.1,35.42,4.13,8.41,1.96,16.36,3.82,32.71,3.82s24.3-1.86,32.71-3.82c8.71-2.03,17.7-4.13,35.42-4.13s26.72,2.1,35.43,4.13c8.41,1.96,16.36,3.82,32.71,3.82s24.29-1.86,32.71-3.82c8.7-2.03,17.7-4.13,35.42-4.13s26.72,2.1,35.42,4.13c8.42,1.96,16.37,3.82,32.71,3.82s24.3-1.86,32.72-3.82c8.7-2.03,17.7-4.13,35.42-4.13,1.69,0,3.3.02,4.84.05" fill="#f4acb7"/>
      <path id="Path_78" data-name="Path 78" d="M409.16,56.21c1.69,0,3.3.02,4.84.05V68.2c-1.53-.04-3.14-.06-4.84-.06a123.642,123.642,0,0,0-25.77,2.27c-2.4.48-4.65,1.01-6.94,1.54-8.71,2.04-17.71,4.14-35.43,4.14s-26.71-2.1-35.42-4.14c-2.29-.53-4.54-1.06-6.94-1.54a123.642,123.642,0,0,0-25.77-2.27,123.642,123.642,0,0,0-25.77,2.27c-2.4.48-4.65,1.01-6.94,1.54-8.7,2.04-17.7,4.14-35.42,4.14s-26.72-2.1-35.42-4.14c-2.29-.53-4.55-1.06-6.95-1.54a123.642,123.642,0,0,0-25.77-2.27,123.6,123.6,0,0,0-25.76,2.27c-2.4.48-4.66,1.01-6.95,1.54-8.7,2.04-17.7,4.14-35.42,4.14s-26.72-2.1-35.42-4.14c-2.29-.53-4.55-1.06-6.95-1.54A123.6,123.6,0,0,0,.36,68.14V56.21c17.72,0,26.72,2.1,35.42,4.13,8.41,1.97,16.36,3.82,32.71,3.82s24.3-1.85,32.71-3.82c8.71-2.03,17.7-4.13,35.42-4.13s26.72,2.1,35.43,4.13c8.41,1.97,16.36,3.82,32.71,3.82s24.29-1.85,32.71-3.82c8.7-2.03,17.7-4.13,35.42-4.13s26.72,2.1,35.42,4.13c8.42,1.97,16.37,3.82,32.71,3.82s24.3-1.85,32.72-3.82c8.7-2.03,17.7-4.13,35.42-4.13" fill="#927176"/>
      <path id="Path_79" data-name="Path 79" d="M414,50.17V62.11c-1.53-.04-3.14-.06-4.84-.06-16.35,0-24.3,1.85-32.71,3.81C367.74,67.9,358.74,70,341.02,70s-26.71-2.1-35.42-4.14c-8.41-1.96-16.36-3.81-32.71-3.81s-24.3,1.85-32.71,3.81c-8.7,2.04-17.7,4.14-35.42,4.14s-26.72-2.1-35.42-4.14c-8.42-1.96-16.37-3.81-32.72-3.81s-24.29,1.85-32.71,3.81C95.21,67.9,86.21,70,68.49,70s-26.72-2.1-35.42-4.14C24.65,63.9,16.7,62.05.36,62.05V50.12c17.72,0,26.72,2.1,35.42,4.13,8.41,1.97,16.36,3.82,32.71,3.82s24.3-1.85,32.71-3.82c8.71-2.03,17.7-4.13,35.42-4.13s26.72,2.1,35.43,4.13c8.41,1.97,16.36,3.82,32.71,3.82s24.29-1.85,32.71-3.82c8.7-2.03,17.7-4.13,35.42-4.13s26.72,2.1,35.42,4.13c8.42,1.97,16.37,3.82,32.71,3.82s24.3-1.85,32.72-3.82c8.7-2.03,17.7-4.13,35.42-4.13,1.69,0,3.3.02,4.84.05" fill="#8a6269"/>
    </g>
  </g>
</svg>
