<svg xmlns="http://www.w3.org/2000/svg" xmlns:xlink="http://www.w3.org/1999/xlink" width="1396" height="386.794" viewBox="0 0 1396 386.794">
  <defs>
    <clipPath id="clip-path">
      <rect id="Rectangle_2" data-name="Rectangle 2" width="1396" height="386.794" fill="none"/>
    </clipPath>
  </defs>
  <g id="Group_1" data-name="Group 1" clip-path="url(#clip-path)">
    <path id="Path_1" data-name="Path 1" d="M176.3,135.242q-3.6,0-17.02,8.578-30.3,20-57.471,30.764-12.022,4.534-20.139,4.523c-6.24,0-10.49-1.91-12.732-5.77s-3.352-10.975-3.352-21.387A147.408,147.408,0,0,1,71.51,111.34a191.614,191.614,0,0,1,17.02-40.668,180.667,180.667,0,0,1,25.305-35.227q9.532-9.5,13.119-9.514c2.594,0,3.9,2.748,3.9,8.266q0,12.661-4.289,32.09a237.76,237.76,0,0,1-10.391,35.051q-7.193,16.583-13.121,24.994-4.211,6.083-4.211,9.533,0,7.34,7.662,7.332,8.745,0,19.672-6.551a112.013,112.013,0,0,0,22.01-17.955,125.452,125.452,0,0,0,25.772-37.568q9.679-21.467,9.67-41.137,0-18.744-11.541-29.361Q160.509.011,140.076,0a72.4,72.4,0,0,0-18.287,2.652,133.069,133.069,0,0,0-21.7,8.131A167.8,167.8,0,0,0,77.457,23.59Q71.2,27.657,63.713,33.416A153,153,0,0,0,49.889,45.445,149.14,149.14,0,0,0,38.328,58.254Q33.1,64.8,28.268,72A187.71,187.71,0,0,0,13.432,97.752a159.612,159.612,0,0,0-10,26.32A89.318,89.318,0,0,0,0,147.408a67.762,67.762,0,0,0,5.3,26.709,68.342,68.342,0,0,0,36.711,36.613,67.816,67.816,0,0,0,26.844,5.4q12.341,0,30.609-5.477a227.971,227.971,0,0,0,35.676-14.057q17.428-8.57,27.412-17.488,5.935-5.293,14.055-22.477a53.445,53.445,0,0,0,4.836-15.928v-.311q0-5.149-5.148-5.148" transform="translate(0 0)" fill="#fff"/>
    <path id="Path_2" data-name="Path 2" d="M251.491,92.383c0,2.281,1.619,3.43,4.834,3.43q8.278,0,16.475-6.082a49.2,49.2,0,0,0,13.588-15.615,38.04,38.04,0,0,0,5.4-18.891q0-10.792-7.037-17.176-7.02-6.406-18.891-6.881h-.625q-11.871,0-24.369,8.441a137.209,137.209,0,0,0-30.979,29.516,155.258,155.258,0,0,0-21.561,37.236q-7.866,19.6-7.875,37.393t12.34,29.516q12.31,11.7,30.9,11.717,10.617,0,23.979-6.336a83.733,83.733,0,0,0,23.65-16.631q15-15.615,14.992-34.818,0-4.211-3.744-4.211-2.487,0-5.771,4.211a91.07,91.07,0,0,1-16.865,13.9q-8.917,5.616-14.211,5.615c-3.861,0-6.842-2.027-8.988-6.082q-3.187-6.083-3.2-16.709,0-9.357,3.2-22.965a178.106,178.106,0,0,1,8.051-25.6,54.521,54.521,0,0,1,6.863-13.275q4.067-5.616,6.258-5.615c1.033,0,1.559,2.242,1.559,6.7a45.9,45.9,0,0,1-6.1,23.746c-1.248,2.807-1.871,4.621-1.871,5.459" transform="translate(189.324 32.701)" fill="#fff"/>
    <path id="Path_3" data-name="Path 3" d="M397.661,78.4a51.676,51.676,0,0,0-7.408-15.615,36.338,36.338,0,0,0-11.172-10.471,26.3,26.3,0,0,0-13.354-3.662q-6.083,0-14.992,3.273a75.027,75.027,0,0,0-16.084,8.131c-4.268,3.02-6.393,5.246-6.393,6.7,0,1.055,1.5,2.768,4.523,5.148a52.64,52.64,0,0,1,16.162,19.613,56.98,56.98,0,0,1,5.537,24.9q0,16.26-8.889,28.424-8.92,12.166-20.764,12.184-12.808,0-20.783-10.391-7.952-10.38-7.953-27.41a89.775,89.775,0,0,1,4.756-29.34,86.965,86.965,0,0,1,13.277-24.992A67.592,67.592,0,0,1,333.559,47.4a52.229,52.229,0,0,1,23.572-7.174q10.469-.467,10.469-6.723,0-5.471-23.258-5.459a87.427,87.427,0,0,0-37.1,8.5A121.683,121.683,0,0,0,273.67,59.825,117.957,117.957,0,0,0,249.553,92.7q-8.889,18.1-8.91,36.219,0,22.958,12.5,35.445,9.357,9.209,25.383,14.836a96.771,96.771,0,0,0,32.246,5.615q16.7,0,35.209-8.033A105.921,105.921,0,0,0,377.6,156.093q10.149-10,16.4-26.164a90.325,90.325,0,0,0,6.24-32.713A66.891,66.891,0,0,0,397.661,78.4" transform="translate(252.477 29.427)" fill="#fff"/>
    <path id="Path_4" data-name="Path 4" d="M487.968,151.568c-.313-1.891-.625-4.385-.936-7.5s-.527-5.869-.625-8.266-.156-5.947-.156-10.625q0-13.423.936-28.893.341-3.028.533-4.633a21.287,21.287,0,0,0,.006-5.627q-.483-3.289-1.943-4.5a3.593,3.593,0,0,0-.42-.291c-4.527-2.717-6.176-8.371-4.82-13.471a29.218,29.218,0,0,0,1.029-7.547q0-12.486-12.887-20.684-12.895-8.216-32.869-8.207-23.745,0-49.344,17.018a152.01,152.01,0,0,0-41.232,40.3A140.09,140.09,0,0,0,329.78,118.31q-5.613,15.148-5.615,26.221,0,17.954,11.406,29.672,11.376,11.7,28.873,11.717,8.6,0,18.832-5.479Q393.484,175,405.6,164.123a294.359,294.359,0,0,0,26.629-27.859l.566.566c-.174,1.715-.252,3.957-.252,6.764q0,40.3,24.037,40.3a38.746,38.746,0,0,0,17.488-4.307,25.925,25.925,0,0,0,13.971-27.6Zm-45.133-50.434a94.612,94.612,0,0,0-7.408,6.686,266.176,266.176,0,0,1-24.682,22.342q-12.4,9.679-16.941,9.688-5.293,0-8.814-5.615-3.538-5.643-3.529-14.211,0-12.956,8.521-29.516a147.874,147.874,0,0,1,23.025-32.324c3.451-3.549,5.986-5.3,7.662-5.3,1.871,0,3.586,1.834,5.145,5.537a31.142,31.142,0,0,1,2.34,12.262q0,10.887-7.561,23.137a47.374,47.374,0,0,0-2.7,4.842,8.73,8.73,0,0,0-.971,2.785c0,2.068,2.029,3.119,6.082,3.119,3.334,0,8.754-1.051,16.24-3.119l2.965-.955Z" transform="translate(340.107 32.86)" fill="#fff"/>
    <path id="Path_5" data-name="Path 5" d="M591.3,105.327q-4.678-2.428-16.063-2.418c-6.455,0-11.23.1-14.35.311a13.515,13.515,0,0,1-14.031-17.393l5.521-18.2a31.26,31.26,0,0,1,25-21.8l.107-.016a52.072,52.072,0,0,0,11.834-3.664q11.2-4.534,11.189-20.764,0-8.742-3.9-12.789a11.868,11.868,0,0,0-4.523-2.807,29.027,29.027,0,0,0-6.727-1.949,89.8,89.8,0,0,0-9.6-.4c-2.217-.018-4.451-.082-6.662-.215q-2.616-.157-4.971-.266c-2.5-.1-5.615-.254-9.379-.469Q530.239.323,510.878.305h-.158a31.247,31.247,0,0,0-20.457,7.51q-1.681,1.457-3.443,3.193a109.98,109.98,0,0,0-11.7,13.666c-3.236,3.959-4.854,7.955-4.854,12.029q0,7.488,6.959,10.529,4.853,2.127,14.885,3a7.032,7.032,0,0,1,5.957,9.578q-15.148,38.6-29.986,84.514-14.825,45.94-14.836,54.664c0,4.777,2.322,8.969,6.961,12.615a26,26,0,0,0,16.494,5.459,28.36,28.36,0,0,0,12.436-3.275,46.185,46.185,0,0,0,12.576-9.34,76.789,76.789,0,0,0,14.543-21.25q3-6.338,6.268-15.531A32.348,32.348,0,0,1,552.858,146h6.293c7.291,0,12.436-.273,15.441-.859a13.048,13.048,0,0,0,7.037-3.373,56.216,56.216,0,0,0,9.826-14.25q4.534-8.948,4.523-13.648,0-6.111-4.678-8.539" transform="translate(475.538 0.32)" fill="#fff"/>
    <path id="Path_6" data-name="Path 6" d="M679.779,91.434c-9.086,12.633-24.389,16.141-30.92,17.078A51.533,51.533,0,0,1,642.6,113.5a29,29,0,0,1-5.965,3.08,44.685,44.685,0,0,1-7.117,14.816q-8.917,12.166-20.781,12.186c-8.52,0-15.461-3.471-20.764-10.391s-7.953-16.066-7.953-27.412a89.772,89.772,0,0,1,4.756-29.34,88.713,88.713,0,0,1,6.92-15.383,4.172,4.172,0,0,1,.078-.506A144.6,144.6,0,0,1,564.6,41.721c-.312-.275-.623-.566-.916-.859-2.068,1.736-4.094,3.588-6.082,5.516a117.919,117.919,0,0,0-24.117,32.871q-8.92,18.1-8.91,36.223,0,22.955,12.5,35.443,9.357,9.212,25.383,14.836a96.771,96.771,0,0,0,32.246,5.615q16.7,0,35.209-8.033a105.947,105.947,0,0,0,31.621-20.684q10.147-10,16.4-26.164a90.322,90.322,0,0,0,6.24-32.713v-.488a35.738,35.738,0,0,1-4.387,8.15" transform="translate(550.371 42.871)" fill="#fff"/>
    <path id="Path_7" data-name="Path 7" d="M723.452,110.121a18.536,18.536,0,0,1,1-21.213l.041-.051q1.958-2.514,11.481-13.9Q747.53,61.682,752.61,53.57q5.056-8.13,5.068-14.055c0-1.871-1.969-3.627-5.926-5.244a33.051,33.051,0,0,0-12.5-2.418q-9.535,0-21.7,8.832a107.126,107.126,0,0,0-16.865,15.586,11.689,11.689,0,0,1-16.883.5,94.629,94.629,0,0,0-7.33-6.65c-1.969-1.559-4.328-3.275-7.019-5.145q-15-10.617-35.774-10.625a44.617,44.617,0,0,0-14.992,2.2c-4.055,1.443-6.082,3.176-6.082,5.145q0,3.129,6.082,6.707a55.985,55.985,0,0,1,9.766,8.287q1.623,1.7,3.3,3.684a106.743,106.743,0,0,1,9.643,13.578q2.247,3.688,4.777,7.711,2.859,5.09,5.717,10.682a22.972,22.972,0,0,1-4.037,26.684c-.041.041-.082.082-.121.123q-5.616,5.145-19.828,16.24c-6.043,4.777-9.787,7.916-11.248,9.359q-8.277,8.127-8.266,17.8a18.578,18.578,0,0,0,6,14.289q6.025,5.557,15.381,5.557c4.8,0,10.119-1.99,16.006-5.947s14.758-11.445,26.631-22.477c.937-.838,1.93-1.756,2.963-2.73,1.033-1,1.813-1.7,2.34-2.125l1.715-1.559q7.983,15.148,13.432,22.654,11.407,15.44,32.635,15.459a44.863,44.863,0,0,0,21.777-5.477q10.091-5.441,10.08-11.854c0-2.494-1.033-5.477-3.119-8.908Z" transform="translate(638.32 33.419)" fill="#fff"/>
    <path id="Path_8" data-name="Path 8" d="M653.084,6.927c.332-.1.678-.2,1.02-.3a6.512,6.512,0,0,0-1.02.3m10.326,81.391c1.5-2.193,30.129-44.7-9.254-81.7-12.748,10.908-23.291,24.861-27.113,41.309-2.5,10.064-2.545,19.879-2.379,30.531a46.862,46.862,0,0,1-2.248-5.08c-.041.02-.08.029-.119.049-.1-.363-.187-.727-.266-1.1a53.847,53.847,0,0,1-2.908-14.789c-.086-1.318-.117-2.623-.1-3.941a19.562,19.562,0,0,0-13.463,4.785s-4.1-2.367-10.309-5.826c-15.574-8.686-44.463-24.232-55.44-26.463l-1.424-.383-.1.609c-.924,3.107-5.315,22.406,19.494,44.74A136.168,136.168,0,0,0,583.8,88.976c1.5.826,3.045,1.631,4.627,2.447,0,0-9.707,28.791,13.611,38.324,0,0,5.631,23.2,23.387,11.535a45.729,45.729,0,0,0,6.986-5.875s43.3-2.291,30.932-46.99a.65.65,0,0,1,.07-.1m-43.578,48.414c-.267,2.426-2.656,5.572-5.406,5.256s-4.854-3.988-4.588-6.406c.283-2.408,2.828-2.7,5.6-2.379,2.758.336,4.685,1.121,4.392,3.529" transform="translate(563.835 6.948)" fill="#fff"/>
    <path id="Path_9" data-name="Path 9" d="M253.03,102.781a51.634,51.634,0,0,0-7.408-15.617A36.329,36.329,0,0,0,234.45,76.7,26.3,26.3,0,0,0,221.1,73.032q-6.083,0-14.992,3.275-.839.31-1.664.633a4.586,4.586,0,0,1-6.211-4.863,71.12,71.12,0,0,0-1.5-20.451c-1.443-6.434-3.9-12.516-4.893-19.008a29.657,29.657,0,0,1-.662-6.414c-.975,6.432.135,13.139.682,19.553a70.158,70.158,0,0,1-1.17,18.736c-.877,4.385-2.516,8.441-2.963,12.924a42.408,42.408,0,0,0-.195,8.91A46.8,46.8,0,0,0,190,97.751a59.865,59.865,0,0,0,11.125,18.959,36.815,36.815,0,0,1,8.721,23.9v.189q0,16.26-8.889,28.424-8.92,12.166-20.764,12.184-12.808,0-20.783-10.391-7.952-10.38-7.953-27.41a89.408,89.408,0,0,1,11.455-44.35c.584-.822,1.16-1.627,1.744-2.447,1.029-1.186,2.072-2.4,3.137-3.658a94.414,94.414,0,0,0,8.775-11.873c5.184-8.4,8.988-17.955,8.967-27.625a34.53,34.53,0,0,0-.428-5.459c-1.307-11.248-5.848-21.016-6.357-31.973a36.581,36.581,0,0,1,1.637-10.506A37.811,37.811,0,0,0,176.1,15.89c-1.85,8.684-.791,18.2-1.26,27.252A20.78,20.78,0,0,1,162.7,60.882l-.094.043A121.63,121.63,0,0,0,129.039,84.2a117.956,117.956,0,0,0-24.117,32.871q-8.889,18.1-8.908,36.221,0,22.958,12.5,35.445,9.357,9.209,25.383,14.836a96.771,96.771,0,0,0,32.246,5.615q16.7,0,35.209-8.033a105.922,105.922,0,0,0,31.621-20.684q10.15-10,16.4-26.164a90.324,90.324,0,0,0,6.24-32.713,66.89,66.89,0,0,0-2.574-18.813" transform="translate(100.736 5.995)" fill="#fff"/>
    <path id="Path_10" data-name="Path 10" d="M154.79,233.007a6.839,6.839,0,0,1-7.145,7.145H121.184a6.839,6.839,0,0,1-7.145-7.145V146.545a6.839,6.839,0,0,1,7.145-7.145h26.461a6.839,6.839,0,0,1,7.145,7.145v23.434h-9.012V147.317H122.987v84.918h22.791v-34.83H135.026V189.68H154.79Z" transform="translate(119.646 146.254)" fill="#f6bcca"/>
    <path id="Path_11" data-name="Path 11" d="M177.2,213.365q0,7.279-7.275,7.275h-21.5q-7.211,0-7.211-7.275V165.273q0-7.272,7.211-7.275h21.5q7.276,0,7.275,7.275Zm-8.561-47.834H149.778v47.578H168.64Z" transform="translate(148.159 165.768)" fill="#f6bcca"/>
    <path id="Path_12" data-name="Path 12" d="M201.455,220.639H193.02V218.9q-5.152.71-10.236,1.35a85.209,85.209,0,0,1-10.236.775q-6.956,0-6.955-6.955V158h8.434v54.979l18.992-.514V158h8.434Z" transform="translate(173.737 165.768)" fill="#f6bcca"/>
    <path id="Path_13" data-name="Path 13" d="M222.681,178.8h-8.434V165.857l-15.773.514v54.467h-8.563V158.2h8.563v1.74q4.248-.642,8.564-1.352a59.762,59.762,0,0,1,8.561-.773q7.082,0,7.082,7.016Z" transform="translate(199.25 165.571)" fill="#f6bcca"/>
    <path id="Path_14" data-name="Path 14" d="M274.176,220.838h-8.563V165.856l-18.67.516v54.465h-8.5V165.856l-18.67.516v54.465h-8.561V158.2h8.561v1.738q5.022-.642,10.043-1.352a83.705,83.705,0,0,1,10.109-.773q3.925,0,5.793,2.383,5.41-.71,10.752-1.482a90.942,90.942,0,0,1,10.623-.9q7.082,0,7.082,7.018Z" transform="translate(221.6 165.57)" fill="#f6bcca"/>
    <path id="Path_15" data-name="Path 15" d="M283.747,213.365q0,7.279-7.211,7.275h-20.6q-7.211,0-7.211-7.275V165.273q0-7.272,7.211-7.275h20.6q7.211,0,7.211,7.275v22.535l-2.9,3.025H257.03v22.662h18.412V202.035h8.305Zm-8.305-48.219H257.03v18.863h18.412Z" transform="translate(260.957 165.768)" fill="#f6bcca"/>
    <path id="Path_16" data-name="Path 16" d="M297.5,230.627H285.335q-7.211,0-7.211-7.275V175.519h-7.533v-7.533h7.533V148.478h8.435v19.508H297.5v7.533H286.558v47.576H297.5Z" transform="translate(283.898 155.78)" fill="#f6bcca"/>
    <path id="Path_17" data-name="Path 17" d="M344.336,240.154h-8.949V191.741H311.117v48.414h-8.951V139.4h8.951v44.295h24.271V139.4h8.949Z" transform="translate(317.025 146.254)" fill="#f6bcca"/>
    <path id="Path_18" data-name="Path 18" d="M366.085,213.365q0,7.279-7.275,7.275h-21.5q-7.211,0-7.209-7.275V165.273q0-7.272,7.209-7.275h21.5q7.276,0,7.275,7.275Zm-8.563-47.834H338.659v47.578h18.863Z" transform="translate(346.33 165.768)" fill="#f6bcca"/>
    <path id="Path_19" data-name="Path 19" d="M379.252,230.627H367.084q-7.211,0-7.211-7.275V175.519H352.34v-7.533h7.533V148.478h8.434v19.508h10.945v7.533H368.307v47.576h10.945Z" transform="translate(369.667 155.78)" fill="#f6bcca"/>
    <path id="Path_20" data-name="Path 20" d="M424.282,233.007a6.851,6.851,0,0,1-2.059,5.15,7.188,7.188,0,0,1-5.215,2H391.063a6.839,6.839,0,0,1-7.148-7.145V146.545a6.839,6.839,0,0,1,7.148-7.145h25.945a7.2,7.2,0,0,1,5.215,2,6.854,6.854,0,0,1,2.059,5.15v23.434h-9.012V147.317H392.864v84.918h22.406V207.448h9.012Z" transform="translate(402.795 146.254)" fill="#f6bcca"/>
    <path id="Path_21" data-name="Path 21" d="M446.734,240.154H438.17V185.173l-18.863.516v54.465h-8.562V139.4h8.562V179.25l10.172-1.287a83.5,83.5,0,0,1,10.109-.838q7.146,0,7.145,7.018Z" transform="translate(430.945 146.253)" fill="#f6bcca"/>
    <path id="Path_22" data-name="Path 22" d="M471.051,213.365q0,7.279-7.275,7.275h-21.5q-7.208,0-7.209-7.275V165.273q0-7.272,7.209-7.275h21.5q7.276,0,7.275,7.275Zm-8.561-47.834H443.627v47.578h18.863Z" transform="translate(456.458 165.768)" fill="#f6bcca"/>
    <path id="Path_23" data-name="Path 23" d="M494.208,213.365q0,7.276-7.211,7.275H466.653q-7.211,0-7.211-7.275V165.273q0-7.276,7.211-7.275H487q7.211,0,7.211,7.275v12.49h-8.434V165.531H468.006v47.576h17.768V199.137h8.434Z" transform="translate(482.036 165.768)" fill="#f6bcca"/>
    <path id="Path_24" data-name="Path 24" d="M519.184,213.365q0,7.279-7.275,7.275h-21.5q-7.211,0-7.211-7.275V165.273q0-7.272,7.211-7.275h21.5q7.273,0,7.275,7.275Zm-8.564-47.834H491.758v47.578H510.62Z" transform="translate(506.956 165.768)" fill="#f6bcca"/>
    <rect id="Rectangle_1" data-name="Rectangle 1" width="8.434" height="100.756" transform="translate(1040.625 285.651)" fill="#f6bcca"/>
    <path id="Path_25" data-name="Path 25" d="M554.617,220.641h-8.435V218.9q-5.087.71-10.172,1.352a87.57,87.57,0,0,1-10.106.773q-7.018,0-7.018-6.953V191.219q0-7.211,7.275-7.211h20.152V165.146H527.9v10.686h-8.305V165.273q0-7.272,7.209-7.275h20.6q7.211,0,7.211,7.275Zm-8.305-7.791V190.7H527.19v22.535Z" transform="translate(544.402 165.768)" fill="#f6bcca"/>
    <path id="Path_26" data-name="Path 26" d="M567.946,230.627H555.778q-7.211,0-7.211-7.275V175.519h-7.533v-7.533h7.533V148.478H557v19.508h10.945v7.533H557v47.576h10.945Z" transform="translate(567.641 155.78)" fill="#f6bcca"/>
    <path id="Path_27" data-name="Path 27" d="M594.53,213.365q0,7.279-7.211,7.275h-20.6q-7.211,0-7.211-7.275V165.273q0-7.272,7.211-7.275h20.6q7.211,0,7.211,7.275v22.535l-2.9,3.025h-23.82v22.662h18.412V202.035h8.305Zm-8.305-48.219H567.813v18.863h18.412Z" transform="translate(587.023 165.768)" fill="#f6bcca"/>
  </g>
</svg>
