<svg id="Mask_Group_12" data-name="Mask Group 12" xmlns="http://www.w3.org/2000/svg" xmlns:xlink="http://www.w3.org/1999/xlink" width="414" height="37.9" viewBox="0 0 414 37.9">
  <defs>
    <clipPath id="clip-path">
      <rect id="Rectangle_103" data-name="Rectangle 103" width="414" height="37.9" transform="translate(0 0)" fill="none"/>
    </clipPath>
  </defs>
  <g id="Group_118" data-name="Group 118" clip-path="url(#clip-path)">
    <path id="Path_192" data-name="Path 192" d="M414,24.65V37.06c-6.86.53-14.64.84-23.71.84-31.55,0-47.57-3.74-63.06-7.35-14.98-3.5-29.13-6.8-58.23-6.8V11.34c17.73,0,29.91,1.23,40.12,2.98a.037.037,0,0,1,.03.01c6.52,1.12,12.24,2.45,18.08,3.81,7.12,1.66,14.35,3.35,23.14,4.69a261.545,261.545,0,0,0,39.92,2.66c9.07,0,16.85-.31,23.71-.84" fill="#ffcad4"/>
    <path id="Path_193" data-name="Path 193" d="M414,13.31v2.47c-6.73.56-14.46.9-23.71.9-29.1,0-43.25-3.3-58.24-6.8C316.56,6.27,300.54,2.53,269,2.53V0c29.1,0,43.25,3.3,58.23,6.8,15.49,3.61,31.51,7.35,63.06,7.35,9.07,0,16.85-.31,23.71-.84" fill="#f4acb7"/>
    <path id="Path_194" data-name="Path 194" d="M414,15.78v8.87c-6.86.53-14.64.84-23.71.84a261.545,261.545,0,0,1-39.92-2.66c-8.79-1.34-16.02-3.03-23.14-4.69-5.84-1.36-11.56-2.69-18.08-3.81a.037.037,0,0,0-.03-.01c-10.21-1.75-22.39-2.98-40.12-2.98V2.53c31.54,0,47.56,3.74,63.05,7.35,14.99,3.5,29.14,6.8,58.24,6.8,9.25,0,16.98-.34,23.71-.9" fill="#f4acb7"/>
    <path id="Path_195" data-name="Path 195" d="M0,24.65V37.06c6.86.53,14.64.84,23.71.84,31.55,0,47.57-3.74,63.06-7.35,14.98-3.5,29.13-6.8,58.23-6.8V11.34c-17.73,0-29.91,1.23-40.12,2.98a.037.037,0,0,0-.03.01c-6.52,1.12-12.24,2.45-18.08,3.81-7.12,1.66-14.35,3.35-23.14,4.69a261.545,261.545,0,0,1-39.92,2.66c-9.07,0-16.85-.31-23.71-.84" fill="#ffcad4"/>
    <path id="Path_196" data-name="Path 196" d="M0,13.31v2.47c6.73.56,14.46.9,23.71.9,29.1,0,43.25-3.3,58.24-6.8C97.44,6.27,113.46,2.53,145,2.53V0c-29.1,0-43.25,3.3-58.23,6.8-15.49,3.61-31.51,7.35-63.06,7.35-9.07,0-16.85-.31-23.71-.84" fill="#f4acb7"/>
    <path id="Path_197" data-name="Path 197" d="M0,15.78v8.87c6.86.53,14.64.84,23.71.84a261.545,261.545,0,0,0,39.92-2.66c8.79-1.34,16.02-3.03,23.14-4.69,5.84-1.36,11.56-2.69,18.08-3.81a.037.037,0,0,1,.03-.01c10.21-1.75,22.39-2.98,40.12-2.98V2.53c-31.54,0-47.56,3.74-63.05,7.35-14.99,3.5-29.14,6.8-58.24,6.8-9.25,0-16.98-.34-23.71-.9" fill="#f4acb7"/>
  </g>
</svg>
