<svg xmlns="http://www.w3.org/2000/svg" width="1920" height="133.084" viewBox="0 0 1920 133.084">
  <g id="Group_131" data-name="Group 131" transform="translate(0 -183.885)">
    <path id="Path_28" data-name="Path 28" d="M1680,361.265c-62.418,0-94.118-6.31-124.773-12.412-29.646-5.9-57.648-11.475-115.231-11.475s-85.584,5.574-115.229,11.475c-30.656,6.1-62.355,12.412-124.774,12.412s-94.116-6.31-124.77-12.412c-29.646-5.9-57.646-11.475-115.228-11.475s-85.582,5.574-115.226,11.475c-30.655,6.1-62.353,12.412-124.769,12.412s-94.117-6.31-124.772-12.412c-29.645-5.9-57.645-11.475-115.227-11.475s-85.583,5.574-115.228,11.475c-30.655,6.1-62.354,12.412-124.771,12.412s-94.116-6.31-124.771-12.412C85.582,342.953,57.582,337.378,0,337.378v-35.83c62.417,0,94.116,6.31,124.771,12.412,29.644,5.9,57.645,11.475,115.227,11.475s85.583-5.574,115.227-11.475c30.656-6.1,62.354-12.412,124.772-12.412s94.116,6.31,124.771,12.412c29.645,5.9,57.645,11.475,115.228,11.475s85.581-5.574,115.225-11.475c30.655-6.1,62.353-12.412,124.77-12.412s94.116,6.31,124.771,12.412c29.645,5.9,57.645,11.475,115.227,11.475s85.585-5.574,115.231-11.475c30.655-6.1,62.354-12.412,124.772-12.412s94.118,6.31,124.774,12.412c29.645,5.9,57.647,11.475,115.23,11.475s85.585-5.574,115.23-11.475c30.656-6.1,62.355-12.412,124.774-12.412v35.83c-57.584,0-85.585,5.574-115.231,11.475-30.655,6.1-62.354,12.412-124.773,12.412" transform="translate(0 -44.296)" fill="#feffc2"/>
    <path id="Path_29" data-name="Path 29" d="M1680,343.265c-62.418,0-94.118-6.31-124.773-12.412-29.646-5.9-57.648-11.475-115.231-11.475s-85.584,5.574-115.229,11.475c-30.656,6.1-62.355,12.412-124.774,12.412s-94.116-6.31-124.77-12.412c-29.646-5.9-57.646-11.475-115.228-11.475s-85.582,5.574-115.226,11.475c-30.655,6.1-62.353,12.412-124.769,12.412s-94.117-6.31-124.772-12.412c-29.645-5.9-57.645-11.475-115.227-11.475s-85.583,5.574-115.228,11.475c-30.655,6.1-62.354,12.412-124.771,12.412s-94.116-6.31-124.771-12.412C85.582,324.953,57.582,319.378,0,319.378v-35.83c62.417,0,94.116,6.31,124.771,12.412,29.644,5.9,57.645,11.475,115.227,11.475s85.583-5.574,115.227-11.475c30.656-6.1,62.354-12.412,124.772-12.412s94.116,6.31,124.771,12.412c29.645,5.9,57.645,11.475,115.228,11.475s85.581-5.574,115.225-11.475c30.655-6.1,62.353-12.412,124.77-12.412s94.116,6.31,124.771,12.412c29.645,5.9,57.645,11.475,115.227,11.475s85.585-5.574,115.231-11.475c30.655-6.1,62.354-12.412,124.772-12.412s94.118,6.31,124.774,12.412c29.645,5.9,57.647,11.475,115.23,11.475s85.585-5.574,115.23-11.475c30.656-6.1,62.355-12.412,124.774-12.412v35.83c-57.584,0-85.585,5.574-115.231,11.475-30.655,6.1-62.354,12.412-124.773,12.412" transform="translate(0 -41.652)" fill="#ffcad4"/>
    <path id="Path_30" data-name="Path 30" d="M1680,318.717c-62.418,0-94.118-6.31-124.773-12.412-29.646-5.9-57.648-11.475-115.231-11.475s-85.584,5.574-115.229,11.475c-30.656,6.1-62.355,12.412-124.774,12.412s-94.116-6.31-124.77-12.412c-29.646-5.9-57.646-11.475-115.228-11.475s-85.582,5.574-115.226,11.475c-30.655,6.1-62.353,12.412-124.769,12.412s-94.117-6.31-124.772-12.412C565.579,300.4,537.579,294.83,480,294.83s-85.583,5.574-115.228,11.475c-30.655,6.1-62.354,12.412-124.771,12.412s-94.116-6.31-124.771-12.412C85.582,300.4,57.582,294.83,0,294.83V259c62.417,0,94.116,6.31,124.771,12.412,29.644,5.9,57.645,11.475,115.227,11.475s85.583-5.574,115.227-11.475C385.881,265.31,417.579,259,480,259s94.116,6.31,124.771,12.412c29.645,5.9,57.645,11.475,115.228,11.475s85.581-5.574,115.225-11.475C865.876,265.31,897.574,259,959.991,259s94.116,6.31,124.771,12.412c29.645,5.9,57.645,11.475,115.227,11.475s85.585-5.574,115.231-11.475c30.655-6.1,62.354-12.412,124.772-12.412s94.118,6.31,124.774,12.412c29.645,5.9,57.647,11.475,115.23,11.475s85.585-5.574,115.23-11.475C1825.882,265.31,1857.581,259,1920,259v35.83c-57.584,0-85.585,5.574-115.231,11.475-30.655,6.1-62.354,12.412-124.773,12.412" transform="translate(0 -38.046)" fill="#f4acb7"/>
    <path id="Path_31" data-name="Path 31" d="M1680,296.717c-62.418,0-94.118-6.31-124.773-12.412-29.646-5.9-57.648-11.475-115.231-11.475s-85.584,5.574-115.229,11.475c-30.656,6.1-62.355,12.412-124.774,12.412s-94.116-6.31-124.77-12.412c-29.646-5.9-57.646-11.475-115.228-11.475s-85.582,5.574-115.226,11.475c-30.655,6.1-62.353,12.412-124.769,12.412s-94.117-6.31-124.772-12.412C565.579,278.4,537.579,272.83,480,272.83s-85.583,5.574-115.228,11.475c-30.655,6.1-62.354,12.412-124.771,12.412s-94.116-6.31-124.771-12.412C85.582,278.4,57.582,272.83,0,272.83V237c62.417,0,94.116,6.31,124.771,12.412,29.644,5.9,57.645,11.475,115.227,11.475s85.583-5.574,115.227-11.475C385.881,243.31,417.579,237,480,237s94.116,6.31,124.771,12.412c29.645,5.9,57.645,11.475,115.228,11.475s85.581-5.574,115.225-11.475C865.876,243.31,897.574,237,959.991,237s94.116,6.31,124.771,12.412c29.645,5.9,57.645,11.475,115.227,11.475s85.585-5.574,115.231-11.475c30.655-6.1,62.354-12.412,124.772-12.412s94.118,6.31,124.774,12.412c29.645,5.9,57.647,11.475,115.23,11.475s85.585-5.574,115.23-11.475C1825.882,243.31,1857.581,237,1920,237v35.83c-57.584,0-85.585,5.574-115.231,11.475-30.655,6.1-62.354,12.412-124.773,12.412" transform="translate(0 -34.814)" fill="#927176"/>
    <path id="Path_32" data-name="Path 32" d="M1680,275.265c-62.418,0-94.118-6.31-124.773-12.412-29.646-5.9-57.648-11.475-115.231-11.475s-85.584,5.574-115.229,11.475c-30.656,6.1-62.355,12.412-124.774,12.412s-94.116-6.31-124.77-12.412c-29.646-5.9-57.646-11.475-115.228-11.475s-85.582,5.574-115.226,11.475c-30.655,6.1-62.353,12.412-124.769,12.412s-94.117-6.31-124.772-12.412c-29.645-5.9-57.645-11.475-115.227-11.475s-85.583,5.574-115.228,11.475c-30.655,6.1-62.354,12.412-124.771,12.412s-94.116-6.31-124.771-12.412C85.582,256.953,57.582,251.378,0,251.378v-35.83c62.417,0,94.116,6.31,124.771,12.412,29.644,5.9,57.645,11.475,115.227,11.475s85.583-5.574,115.227-11.475c30.656-6.1,62.354-12.412,124.772-12.412s94.116,6.31,124.771,12.412c29.645,5.9,57.645,11.475,115.228,11.475s85.581-5.574,115.225-11.475c30.655-6.1,62.353-12.412,124.77-12.412s94.116,6.31,124.771,12.412c29.645,5.9,57.645,11.475,115.227,11.475s85.585-5.574,115.231-11.475c30.655-6.1,62.354-12.412,124.772-12.412s94.118,6.31,124.774,12.412c29.645,5.9,57.647,11.475,115.23,11.475s85.585-5.574,115.23-11.475c30.656-6.1,62.355-12.412,124.774-12.412v35.83c-57.584,0-85.585,5.574-115.231,11.475-30.655,6.1-62.354,12.412-124.773,12.412" transform="translate(0 -31.663)" fill="#8a6269"/>
  </g>
</svg>
